<svg xmlns="http://www.w3.org/2000/svg" viewBox="0 0 24 24" fill="none" stroke="currentColor" stroke-width="1.5" stroke-linecap="round" stroke-linejoin="round">
  <!-- Fan center hub -->
  <circle cx="12" cy="12" r="2"/>
  <!-- Fan blades (4 blades, rotated) -->
  <path d="M12 10 C10 8 8 8 8 10 C8 12 10 12 12 12"/>
  <path d="M14 12 C16 10 16 8 14 8 C12 8 12 10 12 12"/>
  <path d="M12 14 C14 16 16 16 16 14 C16 12 14 12 12 12"/>
  <path d="M10 12 C8 14 8 16 10 16 C12 16 12 14 12 12"/>
  <!-- Humidity drops -->
  <path d="M4 6 C4 4.5 6 4.5 6 6 C6 7.5 4 7.5 4 6"/>
  <path d="M7 3 C7 1.5 9 1.5 9 3 C9 4.5 7 4.5 7 3"/>
</svg>
